<svg width="20" height="73" viewBox="0 0 20 73" fill="none" xmlns="http://www.w3.org/2000/svg">
<path fill-rule="evenodd" clip-rule="evenodd" d="M0 0L14.4721 7.23607C17.86 8.92999 20 12.3926 20 16.1803V56.8197C20 60.6074 17.86 64.07 14.4721 65.7639L0 73V0Z" fill="white"/>
<path fill-rule="evenodd" clip-rule="evenodd" d="M12.8536 30.1464C13.0488 30.3417 13.0488 30.6583 12.8536 30.8536L7.70711 36L12.8536 41.1464C13.0488 41.3417 13.0488 41.6583 12.8536 41.8536C12.6583 42.0488 12.3417 42.0488 12.1464 41.8536L6.64645 36.3536C6.45118 36.1583 6.45118 35.8417 6.64645 35.6464L12.1464 30.1464C12.3417 29.9512 12.6583 29.9512 12.8536 30.1464Z" fill="#333333"/>
</svg>
