<?xml version="1.0" encoding="UTF-8"?>
<svg width="24px" height="312px" viewBox="0 0 24 312" version="1.1" xmlns="http://www.w3.org/2000/svg" xmlns:xlink="http://www.w3.org/1999/xlink">
    <title>icon(2)</title>
    <defs>
        <path d="M1.25,0.5 L12.25,0.5 L12.25,0.5 L16.25,4.5 L16.25,19.5 C16.25,20.0522847 15.8022847,20.5 15.25,20.5 L1.25,20.5 C0.69771525,20.5 0.25,20.0522847 0.25,19.5 L0.25,1.5 C0.25,0.94771525 0.69771525,0.5 1.25,0.5 Z" id="path-1"></path>
        <path d="M1.25,0.5 L12.25,0.5 L12.25,0.5 L16.25,4.5 L16.25,19.5 C16.25,20.0522847 15.8022847,20.5 15.25,20.5 L1.25,20.5 C0.69771525,20.5 0.25,20.0522847 0.25,19.5 L0.25,1.5 C0.25,0.94771525 0.69771525,0.5 1.25,0.5 Z" id="path-3"></path>
        <linearGradient x1="76.426422%" y1="64.7788323%" x2="36.1424783%" y2="45.8766925%" id="linearGradient-5">
            <stop stop-color="#6CD02D" stop-opacity="0.410484047" offset="0%"></stop>
            <stop stop-color="#3AA314" stop-opacity="0.215827142" offset="100%"></stop>
        </linearGradient>
        <path d="M1.25,0.5 L12.25,0.5 L12.25,0.5 L16.25,4.5 L16.25,19.5 C16.25,20.0522847 15.8022847,20.5 15.25,20.5 L1.25,20.5 C0.69771525,20.5 0.25,20.0522847 0.25,19.5 L0.25,1.5 C0.25,0.94771525 0.69771525,0.5 1.25,0.5 Z" id="path-6"></path>
        <linearGradient x1="130.622173%" y1="108.867452%" x2="31.8254531%" y2="37.6911661%" id="linearGradient-8">
            <stop stop-color="#6CD02D" stop-opacity="0" offset="0%"></stop>
            <stop stop-color="#3AA314" stop-opacity="0.215827142" offset="100%"></stop>
        </linearGradient>
        <path d="M1.25,0.5 L12.25,0.5 L12.25,0.5 L16.25,4.5 L16.25,19.5 C16.25,20.0522847 15.8022847,20.5 15.25,20.5 L1.25,20.5 C0.69771525,20.5 0.25,20.0522847 0.25,19.5 L0.25,1.5 C0.25,0.94771525 0.69771525,0.5 1.25,0.5 Z" id="path-9"></path>
        <path d="M1.25,0.5 L12.25,0.5 L12.25,0.5 L16.25,4.5 L16.25,19.5 C16.25,20.0522847 15.8022847,20.5 15.25,20.5 L1.25,20.5 C0.69771525,20.5 0.25,20.0522847 0.25,19.5 L0.25,1.5 C0.25,0.94771525 0.69771525,0.5 1.25,0.5 Z" id="path-11"></path>
        <path d="M1.25,0.5 L12.25,0.5 L12.25,0.5 L16.25,4.5 L16.25,19.5 C16.25,20.0522847 15.8022847,20.5 15.25,20.5 L1.25,20.5 C0.69771525,20.5 0.25,20.0522847 0.25,19.5 L0.25,1.5 C0.25,0.94771525 0.69771525,0.5 1.25,0.5 Z" id="path-13"></path>
        <path d="M1.25,0.5 L12.25,0.5 L12.25,0.5 L16.25,4.5 L16.25,19.5 C16.25,20.0522847 15.8022847,20.5 15.25,20.5 L1.25,20.5 C0.69771525,20.5 0.25,20.0522847 0.25,19.5 L0.25,1.5 C0.25,0.94771525 0.69771525,0.5 1.25,0.5 Z" id="path-15"></path>
        <path d="M1.25,0.5 L12.25,0.5 L12.25,0.5 L16.25,4.5 L16.25,19.5 C16.25,20.0522847 15.8022847,20.5 15.25,20.5 L1.25,20.5 C0.69771525,20.5 0.25,20.0522847 0.25,19.5 L0.25,1.5 C0.25,0.94771525 0.69771525,0.5 1.25,0.5 Z" id="path-17"></path>
        <linearGradient x1="82.8496902%" y1="84.2066004%" x2="39.9182133%" y2="30.6501467%" id="linearGradient-19">
            <stop stop-color="#7043EB" offset="0%"></stop>
            <stop stop-color="#5829B3" offset="100%"></stop>
        </linearGradient>
        <path d="M1.25,0.5 L12.25,0.5 L12.25,0.5 L16.25,4.5 L16.25,19.5 C16.25,20.0522847 15.8022847,20.5 15.25,20.5 L1.25,20.5 C0.69771525,20.5 0.25,20.0522847 0.25,19.5 L0.25,1.5 C0.25,0.94771525 0.69771525,0.5 1.25,0.5 Z" id="path-20"></path>
        <path d="M1,0 L12,0 L12,0 L16,4 L16,19 C16,19.5522847 15.5522847,20 15,20 L1,20 C0.44771525,20 0,19.5522847 0,19 L0,1 C0,0.44771525 0.44771525,0 1,0 Z" id="path-22"></path>
        <path d="M1,0 L12,0 L12,0 L16,4 L16,19 C16,19.5522847 15.5522847,20 15,20 L1,20 C0.44771525,20 0,19.5522847 0,19 L0,1 C0,0.44771525 0.44771525,0 1,0 Z" id="path-24"></path>
        <linearGradient x1="79.6546348%" y1="79.9592172%" x2="39.1465333%" y2="28.6501018%" id="linearGradient-26">
            <stop stop-color="#FF656A" offset="0%"></stop>
            <stop stop-color="#FF2727" offset="100%"></stop>
        </linearGradient>
        <path d="M1,0 L12,0 L12,0 L16,4 L16,19 C16,19.5522847 15.5522847,20 15,20 L1,20 C0.44771525,20 0,19.5522847 0,19 L0,1 C0,0.44771525 0.44771525,0 1,0 Z" id="path-27"></path>
        <linearGradient x1="79.6546348%" y1="79.9592172%" x2="39.1465333%" y2="28.6501018%" id="linearGradient-29">
            <stop stop-color="#F9DD1F" stop-opacity="0" offset="0%"></stop>
            <stop stop-color="#CE9B21" offset="100%"></stop>
        </linearGradient>
        <path d="M8.84999999,0.28255771 L4.47857144,1.43240178 C3.96428572,1.68792268 3.57857143,2.07120403 3.57857143,2.58224585 L3.57857143,6.67058031 C3.57857143,6.67058031 3.19285715,6.41505941 2.55000001,6.54281985 C1.65000001,6.67058031 0.75,7.43714302 0.75,8.20370573 C0.75,8.97026844 1.65000001,9.3535498 2.55000001,9.22578934 C3.57857143,9.09802888 4.35,8.45922663 4.35,7.69266392 L4.35,3.73208992 C4.35,3.47656902 4.86428572,3.2210481 4.86428572,3.2210481 L8.59285714,2.19896449 C8.59285714,2.19896449 8.97857143,2.07120403 8.97857143,2.45448539 L8.97857143,5.6484967 C8.97857143,5.6484967 8.59285714,5.3929758 7.95000001,5.52073624 C6.92142859,5.6484967 6.15000002,6.28729895 6.15,7.05386166 C6.14999998,7.82042438 7.05,8.33146619 7.95000001,8.20370573 C8.85000001,8.07594527 9.75,7.43714302 9.75,6.67058031 L9.75,0.921359964 C9.75,0.410318149 9.23571428,0.154797251 8.84999999,0.28255771 L8.84999999,0.28255771 Z" id="path-30"></path>
        <filter x="-38.9%" y="-38.9%" width="222.2%" height="222.2%" filterUnits="objectBoundingBox" id="filter-31">
            <feOffset dx="2" dy="2" in="SourceAlpha" result="shadowOffsetOuter1"></feOffset>
            <feGaussianBlur stdDeviation="1.5" in="shadowOffsetOuter1" result="shadowBlurOuter1"></feGaussianBlur>
            <feColorMatrix values="0 0 0 0 0.896257926   0 0 0 0 0.797788818   0 0 0 0 0.129605591  0 0 0 1 0" type="matrix" in="shadowBlurOuter1"></feColorMatrix>
        </filter>
        <path d="M1.25,0.5 L12.25,0.5 L12.25,0.5 L16.25,4.5 L16.25,19.5 C16.25,20.0522847 15.8022847,20.5 15.25,20.5 L1.25,20.5 C0.69771525,20.5 0.25,20.0522847 0.25,19.5 L0.25,1.5 C0.25,0.94771525 0.69771525,0.5 1.25,0.5 Z" id="path-32"></path>
        <path d="M1.25,0.5 L12.25,0.5 L12.25,0.5 L16.25,4.5 L16.25,19.5 C16.25,20.0522847 15.8022847,20.5 15.25,20.5 L1.25,20.5 C0.69771525,20.5 0.25,20.0522847 0.25,19.5 L0.25,1.5 C0.25,0.94771525 0.69771525,0.5 1.25,0.5 Z" id="path-34"></path>
        <linearGradient x1="79.6546348%" y1="75.5275977%" x2="39.1465333%" y2="31.8082159%" id="linearGradient-36">
            <stop stop-color="#1890FF" offset="0%"></stop>
            <stop stop-color="#0774D8" offset="100%"></stop>
        </linearGradient>
        <path d="M1.25,0.5 L12.25,0.5 L12.25,0.5 L16.25,4.5 L16.25,19.5 C16.25,20.0522847 15.8022847,20.5 15.25,20.5 L1.25,20.5 C0.69771525,20.5 0.25,20.0522847 0.25,19.5 L0.25,1.5 C0.25,0.94771525 0.69771525,0.5 1.25,0.5 Z" id="path-37"></path>
        <linearGradient x1="74.0180812%" y1="59.8090983%" x2="39.1465333%" y2="31.8082159%" id="linearGradient-39">
            <stop stop-color="#007AEA" offset="0%"></stop>
            <stop stop-color="#0774D8" offset="100%"></stop>
        </linearGradient>
        <path d="M1,0 L12,0 L12,0 L16,4 L16,19 C16,19.5522847 15.5522847,20 15,20 L1,20 C0.44771525,20 0,19.5522847 0,19 L0,1 C0,0.44771525 0.44771525,0 1,0 Z" id="path-40"></path>
        <linearGradient x1="39.1465333%" y1="29.1603259%" x2="76.5473485%" y2="52.3400149%" id="linearGradient-42">
            <stop stop-color="#185AFF" offset="0%"></stop>
            <stop stop-color="#1880FF" offset="100%"></stop>
        </linearGradient>
        <path d="M1,0 L12,0 L12,0 L16,4 L16,19 C16,19.5522847 15.5522847,20 15,20 L1,20 C0.44771525,20 0,19.5522847 0,19 L0,1 C0,0.44771525 0.44771525,0 1,0 Z" id="path-43"></path>
        <path d="M1,0 L12,0 L12,0 L16,4 L16,19 C16,19.5522847 15.5522847,20 15,20 L1,20 C0.44771525,20 0,19.5522847 0,19 L0,1 C0,0.44771525 0.44771525,0 1,0 Z" id="path-45"></path>
        <linearGradient x1="42.3870099%" y1="37.8680201%" x2="85.5908417%" y2="59.1460843%" id="linearGradient-47">
            <stop stop-color="#0137A0" offset="0%"></stop>
            <stop stop-color="#004EE6" stop-opacity="0.711156031" offset="100%"></stop>
        </linearGradient>
        <path d="M1.25,0.5 L12.25,0.5 L12.25,0.5 L16.25,4.5 L16.25,19.5 C16.25,20.0522847 15.8022847,20.5 15.25,20.5 L1.25,20.5 C0.69771525,20.5 0.25,20.0522847 0.25,19.5 L0.25,1.5 C0.25,0.94771525 0.69771525,0.5 1.25,0.5 Z" id="path-48"></path>
        <path d="M1.25,0.5 L12.25,0.5 L12.25,0.5 L16.25,4.5 L16.25,19.5 C16.25,20.0522847 15.8022847,20.5 15.25,20.5 L1.25,20.5 C0.69771525,20.5 0.25,20.0522847 0.25,19.5 L0.25,1.5 C0.25,0.94771525 0.69771525,0.5 1.25,0.5 Z" id="path-50"></path>
        <linearGradient x1="76.0500067%" y1="83.3100017%" x2="40.4658114%" y2="26.2622254%" id="linearGradient-52">
            <stop stop-color="#FF7959" offset="0%"></stop>
            <stop stop-color="#FE3302" offset="100%"></stop>
        </linearGradient>
        <path d="M1.25,0.5 L12.25,0.5 L12.25,0.5 L16.25,4.5 L16.25,19.5 C16.25,20.0522847 15.8022847,20.5 15.25,20.5 L1.25,20.5 C0.69771525,20.5 0.25,20.0522847 0.25,19.5 L0.25,1.5 C0.25,0.94771525 0.69771525,0.5 1.25,0.5 Z" id="path-53"></path>
        <path d="M1.25,0.5 L12.25,0.5 L12.25,0.5 L16.25,4.5 L16.25,19.5 C16.25,20.0522847 15.8022847,20.5 15.25,20.5 L1.25,20.5 C0.69771525,20.5 0.25,20.0522847 0.25,19.5 L0.25,1.5 C0.25,0.94771525 0.69771525,0.5 1.25,0.5 Z" id="path-55"></path>
        <path d="M1.25,0.5 L12.25,0.5 L12.25,0.5 L16.25,4.5 L16.25,19.5 C16.25,20.0522847 15.8022847,20.5 15.25,20.5 L1.25,20.5 C0.69771525,20.5 0.25,20.0522847 0.25,19.5 L0.25,1.5 C0.25,0.94771525 0.69771525,0.5 1.25,0.5 Z" id="path-57"></path>
        <linearGradient x1="74.6258772%" y1="83.3100017%" x2="40.9870366%" y2="26.2622254%" id="linearGradient-59">
            <stop stop-color="#46B059" offset="0%"></stop>
            <stop stop-color="#1C9331" offset="100%"></stop>
        </linearGradient>
        <path d="M1.25,0.5 L12.25,0.5 L12.25,0.5 L16.25,4.5 L16.25,19.5 C16.25,20.0522847 15.8022847,20.5 15.25,20.5 L1.25,20.5 C0.69771525,20.5 0.25,20.0522847 0.25,19.5 L0.25,1.5 C0.25,0.94771525 0.69771525,0.5 1.25,0.5 Z" id="path-60"></path>
        <path d="M1.25,0.5 L12.25,0.5 L12.25,0.5 L16.25,4.5 L16.25,19.5 C16.25,20.0522847 15.8022847,20.5 15.25,20.5 L1.25,20.5 C0.69771525,20.5 0.25,20.0522847 0.25,19.5 L0.25,1.5 C0.25,0.94771525 0.69771525,0.5 1.25,0.5 Z" id="path-62"></path>
        <path d="M1.25,0.5 L12.25,0.5 L12.25,0.5 L16.25,4.5 L16.25,19.5 C16.25,20.0522847 15.8022847,20.5 15.25,20.5 L1.25,20.5 C0.69771525,20.5 0.25,20.0522847 0.25,19.5 L0.25,1.5 C0.25,0.94771525 0.69771525,0.5 1.25,0.5 Z" id="path-64"></path>
        <linearGradient x1="70.1156991%" y1="83.3100017%" x2="43.0569318%" y2="27.1325172%" id="linearGradient-66">
            <stop stop-color="#FF4539" offset="0%"></stop>
            <stop stop-color="#F30F00" offset="100%"></stop>
        </linearGradient>
        <path d="M1.25,0.5 L12.25,0.5 L12.25,0.5 L16.25,4.5 L16.25,19.5 C16.25,20.0522847 15.8022847,20.5 15.25,20.5 L1.25,20.5 C0.69771525,20.5 0.25,20.0522847 0.25,19.5 L0.25,1.5 C0.25,0.94771525 0.69771525,0.5 1.25,0.5 Z" id="path-67"></path>
        <path d="M1.25,0.5 L12.25,0.5 L12.25,0.5 L16.25,4.5 L16.25,19.5 C16.25,20.0522847 15.8022847,20.5 15.25,20.5 L1.25,20.5 C0.69771525,20.5 0.25,20.0522847 0.25,19.5 L0.25,1.5 C0.25,0.94771525 0.69771525,0.5 1.25,0.5 Z" id="path-69"></path>
        <path d="M1.25,0.5 L12.25,0.5 L12.25,0.5 L16.25,4.5 L16.25,19.5 C16.25,20.0522847 15.8022847,20.5 15.25,20.5 L1.25,20.5 C0.69771525,20.5 0.25,20.0522847 0.25,19.5 L0.25,1.5 C0.25,0.94771525 0.69771525,0.5 1.25,0.5 Z" id="path-71"></path>
        <linearGradient x1="78.9818678%" y1="66.6856315%" x2="39.7645042%" y2="38.2098752%" id="linearGradient-73">
            <stop stop-color="#2868F0" offset="0%"></stop>
            <stop stop-color="#004FF6" offset="100%"></stop>
        </linearGradient>
        <path d="M1.25,0.5 L12.25,0.5 L12.25,0.5 L16.25,4.5 L16.25,19.5 C16.25,20.0522847 15.8022847,20.5 15.25,20.5 L1.25,20.5 C0.69771525,20.5 0.25,20.0522847 0.25,19.5 L0.25,1.5 C0.25,0.94771525 0.69771525,0.5 1.25,0.5 Z" id="path-74"></path>
        <path d="M1.25,0.5 L12.25,0.5 L12.25,0.5 L16.25,4.5 L16.25,19.5 C16.25,20.0522847 15.8022847,20.5 15.25,20.5 L1.25,20.5 C0.69771525,20.5 0.25,20.0522847 0.25,19.5 L0.25,1.5 C0.25,0.94771525 0.69771525,0.5 1.25,0.5 Z" id="path-76"></path>
        <linearGradient x1="73.8735437%" y1="83.3100017%" x2="42.1930073%" y2="27.8901896%" id="linearGradient-78">
            <stop stop-color="#BBCADC" offset="0%"></stop>
            <stop stop-color="#97ABC1" offset="100%"></stop>
        </linearGradient>
    </defs>
    <g id="icon" stroke="none" stroke-width="1" fill="none" fill-rule="evenodd">
        <g id="icon(2)">
            <g id="编组" fill-rule="nonzero">
                <rect id="矩形" fill="#FFFFFF" opacity="0" x="0" y="0" width="24" height="24"></rect>
                <path d="M1,2 L9.75162386,2 C10.3151138,2 10.8524597,2.23770562 11.231504,2.65465441 L15,6.8 L15,6.8 L0,6.8 L0,3 C0,2.44771525 0.44771525,2 1,2 Z" id="矩形" fill="#FDA504"></path>
                <path d="M0.6,5 L23,5 C23.5522847,5 24,5.44771525 24,6 L24,20.8 C24,21.3522847 23.5522847,21.8 23,21.8 L1,21.8 C0.44771525,21.8 0,21.3522847 0,20.8 L0,5.6 C0,5.26862915 0.26862915,5 0.6,5 Z" id="矩形" fill="#FFB817"></path>
            </g>
            <g id="编组" transform="translate(0.000000, 24.000000)" fill-rule="nonzero">
                <rect id="矩形" fill="#FFFFFF" opacity="0" x="0" y="0" width="24" height="24"></rect>
                <path d="M1,2 L9.75162386,2 C10.3151138,2 10.8524597,2.23770562 11.231504,2.65465441 L15,6.8 L15,6.8 L0,6.8 L0,3 C0,2.44771525 0.44771525,2 1,2 Z" id="矩形" fill="#FDA504"></path>
                <path d="M0.6,5 L23,5 C23.5522847,5 24,5.44771525 24,6 L24,20.8 C24,21.3522847 23.5522847,21.8 23,21.8 L1,21.8 C0.44771525,21.8 0,21.3522847 0,20.8 L0,5.6 C0,5.26862915 0.26862915,5 0.6,5 Z" id="矩形" fill="#FFB817"></path>
                <g id="组建团队00" transform="translate(7.200000, 8.600000)">
                    <rect id="矩形" fill="#000000" opacity="0" x="0" y="0" width="9.6" height="9.6"></rect>
                    <path d="M9.5181,7.59555 C9.41775,7.28265 9.1818,7.09335 8.9004,6.95565 C8.7054,6.85995 8.4975,6.79095 8.3013,6.69765 C8.14245,6.62175 7.9872,6.53535 7.84365,6.43485 C7.7817,6.39165 7.728,6.3018 7.7175,6.22695 C7.6941,6.0729 7.70115,5.91405 7.69995,5.7576 C7.69995,5.73195 7.71165,5.69925 7.7292,5.6793 C7.87515,5.52285 7.94175,5.33025 7.992,5.1282 C8.0001,5.0979 8.0247,5.0616 8.0526,5.04645 C8.2173,4.953 8.2944,4.63305 8.17635,4.48485 C8.1378,4.4358 8.1378,4.3962 8.1531,4.34355 C8.2371,4.05975 8.27565,3.7725 8.25225,3.47595 C8.2254,3.1362 8.03505,2.9037 7.70925,2.82675 C7.6812,2.8197 7.65555,2.7963 7.62975,2.7813 C7.5516,2.73345 7.47915,2.65755 7.39515,2.6424 C7.23165,2.61195 7.06125,2.59335 6.89655,2.60625 C6.2847,2.6529 5.92965,2.9811 5.90625,3.6291 C5.89815,3.8778 5.94135,4.1196 5.99265,4.36125 C5.99955,4.39635 5.98905,4.44645 5.96805,4.4757 C5.8548,4.63215 5.9214,4.9521 6.08835,5.04795 C6.114,5.0631 6.14205,5.0934 6.14895,5.1204 C6.198,5.32935 6.26925,5.52555 6.42105,5.6856 C6.4374,5.70195 6.4467,5.7324 6.44565,5.75565 C6.4434,5.9436 6.4374,6.1305 6.43275,6.336 C6.47595,6.35235 6.54015,6.3711 6.5997,6.39795 C6.7632,6.4704 6.9348,6.531 7.08555,6.62565 C7.2525,6.7296 7.34355,6.8907 7.3377,7.10205 C7.33185,7.32855 7.347,7.55505 7.3482,7.7817 C7.3482,7.8564 7.3692,7.8798 7.4475,7.8798 C8.12475,7.87635 8.802,7.87755 9.4782,7.87875 C9.5133,7.87875 9.54705,7.8822 9.58215,7.8846 C9.58215,7.87875 9.58215,7.8729 9.58215,7.86705 C9.5625,7.7742 9.546,7.68195 9.5181,7.59555 L9.5181,7.59555 Z M7.14075,7.14135 C7.1466,6.92295 7.0461,6.7911 6.8721,6.6942 C6.80325,6.6567 6.7308,6.6264 6.6585,6.59835 C6.41325,6.50145 6.16695,6.4068 5.9217,6.30885 C5.6496,6.20145 5.38455,6.07065 5.10435,5.98995 C4.9035,5.9316 4.77045,5.83245 4.69215,5.64675 C4.6746,5.607 4.64895,5.57085 4.635,5.53005 C4.6116,5.46 4.5708,5.4249 4.4937,5.4168 C4.3863,5.40525 4.3746,5.37705 4.4166,5.2755 C4.4259,5.25105 4.43655,5.22525 4.45395,5.2077 C4.5753,5.08635 4.614,4.9392 4.6128,4.77225 C4.6116,4.62285 4.6596,4.4943 4.8171,4.4301 C4.85925,4.4127 4.90125,4.36125 4.9164,4.31565 C5.0145,4.0377 5.0775,3.7563 4.91415,3.4773 C4.899,3.45045 4.8849,3.41655 4.8861,3.38745 C4.89315,3.1878 4.899,2.98815 4.91415,2.78955 C4.93395,2.52795 4.92,2.2746 4.7868,2.03865 C4.74015,1.9569 4.67475,1.9149 4.5801,1.90095 C4.5159,1.89165 4.44345,1.86585 4.3944,1.82385 C4.15275,1.61595 3.87015,1.56225 3.56655,1.581 C3.291,1.59735 3.03645,1.69665 2.7819,1.79475 C2.5191,1.89525 2.3475,2.07855 2.26575,2.3448 C2.1852,2.6064 2.19795,2.8725 2.2377,3.1377 C2.2623,3.3012 2.3148,3.4623 2.2026,3.6141 C2.1945,3.6246 2.1933,3.64215 2.19555,3.6561 C2.2236,3.86505 2.2458,4.07535 2.2854,4.28205 C2.3052,4.38705 2.37645,4.4595 2.4933,4.47825 C2.51895,4.4817 2.5551,4.52265 2.5587,4.5495 C2.57745,4.6908 2.5785,4.8333 2.6019,4.9734 C2.61345,5.04345 2.65215,5.11125 2.6859,5.17665 C2.71035,5.2245 2.7525,5.26425 2.77815,5.3121 C2.80725,5.3634 2.805,5.4078 2.7279,5.41365 C2.6706,5.4183 2.6415,5.45565 2.61585,5.5071 C2.5656,5.61105 2.50845,5.7126 2.44995,5.81295 C2.40555,5.88885 2.3403,5.93325 2.2515,5.95425 C2.14755,5.97765 2.0448,6.0102 1.9455,6.04995 C1.47375,6.23805 1.0032,6.4272 0.5337,6.6198 C0.4485,6.6549 0.36435,6.6981 0.28845,6.7494 C0.1647,6.83355 0.0993,6.94785 0.1005,7.1079 C0.1029,7.4244 0.0888,7.74075 0.0807,8.05725 C1.11525,8.05725 2.151,8.05725 3.18555,8.05725 C3.21585,7.84005 3.2451,7.62165 3.2766,7.40445 C3.3186,7.1208 3.363,6.83805 3.40275,6.5532 C3.4062,6.5241 3.39345,6.4914 3.38055,6.46335 C3.33975,6.3735 3.3,6.2835 3.252,6.1971 C3.21585,6.1317 3.231,6.09675 3.2988,6.07455 C3.32925,6.06525 3.3606,6.05235 3.384,6.03255 C3.6279,5.8386 3.83115,5.96355 4.04025,6.1212 C3.9888,6.22635 3.93045,6.33255 3.8838,6.44475 C3.86385,6.495 3.8523,6.558 3.86385,6.60945 C3.9702,7.0812 4.08225,7.55175 4.19325,8.0223 C4.19565,8.0328 4.19565,8.0445 4.19685,8.0562 C5.18475,8.0562 6.1737,8.0562 7.1616,8.0562 C7.15125,7.7508 7.1325,7.446 7.14075,7.14135 L7.14075,7.14135 Z" id="形状" fill="#EF9B02"></path>
                </g>
            </g>
            <g id="图片" transform="translate(0.000000, 48.000000)">
                <rect id="矩形" x="0" y="0" width="24" height="24"></rect>
                <g id="编组-23" transform="translate(3.750000, 1.500000)">
                    <g id="矩形" fill="#7AD72B" fill-rule="nonzero">
                        <path d="M1.25,0.5 L12.25,0.5 L12.25,0.5 L16.25,4.5 L16.25,19.5 C16.25,20.0522847 15.8022847,20.5 15.25,20.5 L1.25,20.5 C0.69771525,20.5 0.25,20.0522847 0.25,19.5 L0.25,1.5 C0.25,0.94771525 0.69771525,0.5 1.25,0.5 Z" id="path-1"></path>
                    </g>
                    <g id="矩形备份-56-Clipped">
                        <mask id="mask-2" fill="white">
                            <use xlink:href="#path-1"></use>
                        </mask>
                        <g id="path-1"></g>
                        <path d="M19.25,4.5 L13.25,4.5 C12.6977153,4.5 12.25,4.05228475 12.25,3.5 L12.25,-1.5 L12.25,-1.5 L19.25,4.5 Z" id="矩形备份-56" fill="#FFFFFF" fill-rule="nonzero" opacity="0.5" mask="url(#mask-2)"></path>
                    </g>
                    <g id="路径-3-Clipped">
                        <mask id="mask-4" fill="white">
                            <use xlink:href="#path-3"></use>
                        </mask>
                        <g id="path-1"></g>
                        <polygon id="路径-3" fill="url(#linearGradient-5)" fill-rule="nonzero" opacity="0.8" mask="url(#mask-4)" points="2.1001233 15.3065736 8.25 21 19.0361709 21 12.9940334 11.25"></polygon>
                    </g>
                    <g id="路径-3备份-Clipped">
                        <mask id="mask-7" fill="white">
                            <use xlink:href="#path-6"></use>
                        </mask>
                        <g id="path-1"></g>
                        <polygon id="路径-3备份" fill-opacity="0.8" fill="url(#linearGradient-8)" fill-rule="nonzero" mask="url(#mask-7)" points="10.1885761 7.125 16.5 11.9514956 18.3623735 9.9794652 12.2485593 4.85275898"></polygon>
                    </g>
                    <g id="三角形备份-Clipped">
                        <mask id="mask-10" fill="white">
                            <use xlink:href="#path-9"></use>
                        </mask>
                        <g id="path-1"></g>
                        <g id="三角形备份" mask="url(#mask-10)">
                            <g transform="translate(8.000000, 9.000000)" id="path-5-link">
                                <g>
                                    <path d="M4.2649614,1.0472095 L7.0526687,5.6089125 C7.2686604,5.9623534 7.1572358,6.4239697 6.8037949,6.6399614 C6.6860389,6.7119233 6.5507109,6.75 6.4127074,6.75 L0.83729263,6.75 C0.42307907,6.75 0.08729263,6.4142136 0.08729263,6 C0.08729263,5.8619964 0.12536929,5.7266684 0.19733125,5.6089125 L2.9850386,1.0472095 C3.2010303,0.69376862 3.6626466,0.58234399 4.0160875,0.79833565 C4.1176119,0.86037836 4.2029187,0.9456851 4.2649614,1.0472095 Z" id="path-5" fill="#000000" fill-rule="nonzero"></path>
                                </g>
                                <g>
                                    <path d="M4.2649614,1.0472095 L7.0526687,5.6089125 C7.2686604,5.9623534 7.1572358,6.4239697 6.8037949,6.6399614 C6.6860389,6.7119233 6.5507109,6.75 6.4127074,6.75 L0.83729263,6.75 C0.42307907,6.75 0.08729263,6.4142136 0.08729263,6 C0.08729263,5.8619964 0.12536929,5.7266684 0.19733125,5.6089125 L2.9850386,1.0472095 C3.2010303,0.69376862 3.6626466,0.58234399 4.0160875,0.79833565 C4.1176119,0.86037836 4.2029187,0.9456851 4.2649614,1.0472095 Z" id="path-5" fill="#FFFFFF"></path>
                                </g>
                            </g>
                        </g>
                    </g>
                    <g id="三角形-Clipped">
                        <mask id="mask-12" fill="white">
                            <use xlink:href="#path-11"></use>
                        </mask>
                        <g id="path-1"></g>
                        <g id="三角形" mask="url(#mask-12)">
                            <g transform="translate(2.000000, 7.000000)" id="path-7-link">
                                <g>
                                    <path d="M5.39783418,0.86057287 L9.3420564,7.6220967 C9.5507666,7.9798857 9.4299145,8.439124 9.0721255,8.6478342 C8.9574235,8.7147437 8.8270132,8.75 8.6942223,8.75 L0.80577775,8.75 C0.39156419,8.75 0.05577775,8.4142136 0.05577775,8 C0.05577775,7.867209 0.09103405,7.7367988 0.15794357,7.6220967 L4.10216582,0.86057287 C4.31087604,0.50278394 4.77011433,0.38193175 5.12790327,0.59064197 C5.239656,0.65583106 5.33264509,0.74882015 5.39783418,0.86057287 Z" id="path-7" fill="#000000" fill-rule="nonzero"></path>
                                </g>
                                <g>
                                    <path d="M5.39783418,0.86057287 L9.3420564,7.6220967 C9.5507666,7.9798857 9.4299145,8.439124 9.0721255,8.6478342 C8.9574235,8.7147437 8.8270132,8.75 8.6942223,8.75 L0.80577775,8.75 C0.39156419,8.75 0.05577775,8.4142136 0.05577775,8 C0.05577775,7.867209 0.09103405,7.7367988 0.15794357,7.6220967 L4.10216582,0.86057287 C4.31087604,0.50278394 4.77011433,0.38193175 5.12790327,0.59064197 C5.239656,0.65583106 5.33264509,0.74882015 5.39783418,0.86057287 Z" id="path-7" fill="#FFFFFF"></path>
                                </g>
                            </g>
                        </g>
                    </g>
                    <g id="椭圆形-Clipped">
                        <mask id="mask-14" fill="white">
                            <use xlink:href="#path-13"></use>
                        </mask>
                        <g id="path-1"></g>
                        <g id="椭圆形" mask="url(#mask-14)">
                            <g transform="translate(9.000000, 4.000000)" id="path-9-link">
                                <g>
                                    <circle id="path-9" fill="#000000" fill-rule="nonzero" cx="2.25" cy="2" r="1.5"></circle>
                                </g>
                                <g>
                                    <circle id="path-9" fill="#FFFFFF" cx="2.25" cy="2" r="1.5"></circle>
                                </g>
                            </g>
                        </g>
                    </g>
                </g>
            </g>
            <g id="视频" transform="translate(0.000000, 72.000000)">
                <rect id="矩形备份-57" x="0" y="0" width="24" height="24"></rect>
                <g id="编组-23备份" transform="translate(3.750000, 1.500000)">
                    <g id="矩形" fill="#7543EB" fill-rule="nonzero">
                        <path d="M1.25,0.5 L12.25,0.5 L12.25,0.5 L16.25,4.5 L16.25,19.5 C16.25,20.0522847 15.8022847,20.5 15.25,20.5 L1.25,20.5 C0.69771525,20.5 0.25,20.0522847 0.25,19.5 L0.25,1.5 C0.25,0.94771525 0.69771525,0.5 1.25,0.5 Z" id="path-11"></path>
                    </g>
                    <g id="矩形备份-56-Clipped">
                        <mask id="mask-16" fill="white">
                            <use xlink:href="#path-15"></use>
                        </mask>
                        <g id="path-11"></g>
                        <path d="M19.25,4.5 L13.25,4.5 C12.6977153,4.5 12.25,4.05228475 12.25,3.5 L12.25,-1.5 L12.25,-1.5 L19.25,4.5 Z" id="矩形备份-56" fill="#FFFFFF" fill-rule="nonzero" opacity="0.5" mask="url(#mask-16)"></path>
                    </g>
                    <g id="路径-3-Clipped">
                        <mask id="mask-18" fill="white">
                            <use xlink:href="#path-17"></use>
                        </mask>
                        <g id="path-11"></g>
                        <polygon id="路径-3" fill="url(#linearGradient-19)" fill-rule="nonzero" opacity="0.5" mask="url(#mask-18)" points="3.891336 14.6118251 12.75 22.7436797 19.2316052 15.6484768 13.201725 8.55327384"></polygon>
                    </g>
                    <g id="路径-Clipped">
                        <mask id="mask-21" fill="white">
                            <use xlink:href="#path-20"></use>
                        </mask>
                        <g id="path-11"></g>
                        <g id="路径" mask="url(#mask-21)">
                            <g transform="translate(3.000000, 7.000000)" id="path-14-link">
                                <g>
                                    <path d="M6.39585,8.15 L1.88685,8.15 C1.259925,8.15 0.75,7.6336572 0.75,6.9981641 L0.75,2.10221581 C0.75,1.46702673 1.259925,0.95 1.88685,0.95 L6.39585,0.95 C7.0227,0.95 7.533,1.46695074 7.533,2.10221581 L7.533,2.94105445 L9.905175,1.55327384 C9.9969937,1.49985152 10.1099063,1.49985152 10.201725,1.55327384 C10.293495,1.60695568 10.35,1.70617128 10.35,1.81353495 L10.35,7.286921 C10.35,7.3943284 10.2934627,7.4935844 10.201725,7.5474101 C10.1099063,7.6008324 9.9969937,7.6008324 9.905175,7.5474101 L7.533,6.1597054 L7.533,6.9981641 C7.533,7.6336572 7.022775,8.15 6.39585,8.15 Z" id="path-14" fill="#000000" fill-rule="nonzero"></path>
                                </g>
                                <g>
                                    <path d="M6.39585,8.15 L1.88685,8.15 C1.259925,8.15 0.75,7.6336572 0.75,6.9981641 L0.75,2.10221581 C0.75,1.46702673 1.259925,0.95 1.88685,0.95 L6.39585,0.95 C7.0227,0.95 7.533,1.46695074 7.533,2.10221581 L7.533,2.94105445 L9.905175,1.55327384 C9.9969937,1.49985152 10.1099063,1.49985152 10.201725,1.55327384 C10.293495,1.60695568 10.35,1.70617128 10.35,1.81353495 L10.35,7.286921 C10.35,7.3943284 10.2934627,7.4935844 10.201725,7.5474101 C10.1099063,7.6008324 9.9969937,7.6008324 9.905175,7.5474101 L7.533,6.1597054 L7.533,6.9981641 C7.533,7.6336572 7.022775,8.15 6.39585,8.15 Z" id="path-14" fill="#FFFFFF"></path>
                                </g>
                            </g>
                        </g>
                    </g>
                </g>
            </g>
            <g id="音频" transform="translate(0.000000, 96.000000)">
                <rect id="矩形备份-58" x="0" y="0" width="24" height="24"></rect>
                <g id="矩形" transform="translate(4.000000, 2.000000)" fill="#FF656A" fill-rule="nonzero">
                    <path d="M1,0 L12,0 L12,0 L16,4 L16,19 C16,19.5522847 15.5522847,20 15,20 L1,20 C0.44771525,20 0,19.5522847 0,19 L0,1 C0,0.44771525 0.44771525,0 1,0 Z" id="path-16"></path>
                </g>
                <g id="矩形备份-56-Clipped" transform="translate(4.000000, 2.000000)">
                    <mask id="mask-23" fill="white">
                        <use xlink:href="#path-22"></use>
                    </mask>
                    <g id="path-16"></g>
                    <path d="M19,4 L13,4 C12.4477153,4 12,3.55228475 12,3 L12,-2 L12,-2 L19,4 Z" id="矩形备份-56" fill="#FFFFFF" fill-rule="nonzero" opacity="0.5" mask="url(#mask-23)"></path>
                </g>
                <g id="路径-3-Clipped" transform="translate(4.000000, 2.000000)">
                    <mask id="mask-25" fill="white">
                        <use xlink:href="#path-24"></use>
                    </mask>
                    <g id="path-16"></g>
                    <polygon id="路径-3" fill="url(#linearGradient-26)" fill-rule="nonzero" opacity="0.5" mask="url(#mask-25)" points="2.891336 14.1118251 11.75 22.2436797 19.0478112 14.3237319 11.75 6.92135996 6.2827785 8.9816494 6.074817 13.1922436"></polygon>
                </g>
                <g id="路径-Clipped" transform="translate(4.000000, 2.000000)">
                    <mask id="mask-28" fill="white">
                        <use xlink:href="#path-27"></use>
                    </mask>
                    <use id="path-16" fill="#F9DD1F" xlink:href="#path-27"></use>
                    <path d="M19,4 L13,4 C12.4477153,4 12,3.55228475 12,3 L12,-2 L12,-2 L19,4 Z" id="矩形备份-57" fill="#FFFFFF" opacity="0.5" mask="url(#mask-28)"></path>
                    <g id="路径" mask="url(#mask-28)">
                        <g transform="translate(2.000000, 6.000000)" id="path-19-link">
                            <g>
                                <path d="M8.85,0.28255771 L4.4785714,1.43240178 C3.96428572,1.68792268 3.57857143,2.071204 3.57857143,2.5822458 L3.57857143,6.6705803 C3.57857143,6.6705803 3.19285715,6.4150594 2.55000001,6.5428198 C1.65000001,6.6705803 0.75,7.437143 0.75,8.2037057 C0.75,8.9702684 1.65000001,9.3535498 2.55000001,9.2257893 C3.57857143,9.0980289 4.35,8.4592266 4.35,7.6926639 L4.35,3.7320899 C4.35,3.476569 4.8642857,3.2210481 4.8642857,3.2210481 L8.5928571,2.1989645 C8.5928571,2.1989645 8.9785714,2.071204 8.9785714,2.4544854 L8.9785714,5.6484967 C8.9785714,5.6484967 8.5928571,5.3929758 7.95,5.5207362 C6.9214286,5.6484967 6.15,6.287299 6.15,7.0538617 C6.15,7.8204244 7.05,8.3314662 7.95,8.2037057 C8.85,8.0759453 9.75,7.437143 9.75,6.6705803 L9.75,0.92135996 C9.75,0.41031815 9.2357143,0.15479725 8.85,0.28255771 L8.85,0.28255771 Z" id="path-19" fill="#000000" fill-rule="nonzero"></path>
                            </g>
                            <g>
                                <path d="M8.85,0.28255771 L4.4785714,1.43240178 C3.96428572,1.68792268 3.57857143,2.071204 3.57857143,2.5822458 L3.57857143,6.6705803 C3.57857143,6.6705803 3.19285715,6.4150594 2.55000001,6.5428198 C1.65000001,6.6705803 0.75,7.437143 0.75,8.2037057 C0.75,8.9702684 1.65000001,9.3535498 2.55000001,9.2257893 C3.57857143,9.0980289 4.35,8.4592266 4.35,7.6926639 L4.35,3.7320899 C4.35,3.476569 4.8642857,3.2210481 4.8642857,3.2210481 L8.5928571,2.1989645 C8.5928571,2.1989645 8.9785714,2.071204 8.9785714,2.4544854 L8.9785714,5.6484967 C8.9785714,5.6484967 8.5928571,5.3929758 7.95,5.5207362 C6.9214286,5.6484967 6.15,6.287299 6.15,7.0538617 C6.15,7.8204244 7.05,8.3314662 7.95,8.2037057 C8.85,8.0759453 9.75,7.437143 9.75,6.6705803 L9.75,0.92135996 C9.75,0.41031815 9.2357143,0.15479725 8.85,0.28255771 L8.85,0.28255771 Z" id="path-19" fill="#FFFFFF"></path>
                                <path d="M0.891336002,8.11182508 L9.75,16.2436797 C12.3752457,15.6972201 14.1252457,14.9493269 15,14 C15.8747543,13.0506731 16.557358,11.1585837 17.0478112,8.32373186 L9.75,0.921359964 L4.28277847,2.98164944 L4.07481697,7.19224359 L0.891336002,8.11182508 Z" id="路径-3备份" fill="url(#linearGradient-29)" opacity="0.5"></path>
                                <g id="路径备份">
                                    <use fill="black" fill-opacity="1" filter="url(#filter-31)" xlink:href="#path-30"></use>
                                    <use fill="#FFFFFF" fill-rule="evenodd" xlink:href="#path-30"></use>
                                </g>
                            </g>
                        </g>
                    </g>
                </g>
            </g>
            <g id="文件备份-6" transform="translate(0.000000, 120.000000)">
                <rect id="矩形备份-59" x="0" y="0" width="24" height="24"></rect>
                <g id="编组-23备份-3" transform="translate(3.750000, 1.500000)">
                    <g id="矩形" fill="#1890FF" fill-rule="nonzero">
                        <path d="M1.25,0.5 L12.25,0.5 L12.25,0.5 L16.25,4.5 L16.25,19.5 C16.25,20.0522847 15.8022847,20.5 15.25,20.5 L1.25,20.5 C0.69771525,20.5 0.25,20.0522847 0.25,19.5 L0.25,1.5 C0.25,0.94771525 0.69771525,0.5 1.25,0.5 Z" id="path-21"></path>
                    </g>
                    <g id="矩形备份-56-Clipped">
                        <mask id="mask-33" fill="white">
                            <use xlink:href="#path-32"></use>
                        </mask>
                        <g id="path-21"></g>
                        <path d="M19.25,4.5 L13.25,4.5 C12.6977153,4.5 12.25,4.05228475 12.25,3.5 L12.25,-1.5 L12.25,-1.5 L19.25,4.5 Z" id="矩形备份-56" fill="#FFFFFF" fill-rule="nonzero" opacity="0.5" mask="url(#mask-33)"></path>
                    </g>
                    <g id="路径-3-Clipped">
                        <mask id="mask-35" fill="white">
                            <use xlink:href="#path-34"></use>
                        </mask>
                        <g id="path-21"></g>
                        <polygon id="路径-3" fill="url(#linearGradient-36)" fill-rule="nonzero" opacity="0.5" mask="url(#mask-35)" points="5.17302227 13.6938609 13.439606 21.7691117 21.2218298 13.5180489 13.5686356 6.99554796 11.9443092 9.0116158 9.0142113 6.99554796 10.0955021 12.73306 8.25 8.57763682 7.50819895 9.0116158 4.34590328 6.99554796"></polygon>
                    </g>
                    <g id="W-Clipped">
                        <mask id="mask-38" fill="white">
                            <use xlink:href="#path-37"></use>
                        </mask>
                        <use id="path-21" fill="#1890FF" xlink:href="#path-37"></use>
                        <polygon id="路径-3" fill="url(#linearGradient-39)" opacity="0.5" mask="url(#mask-38)" points="5.06809419 13.9905634 13.439606 21.7691117 16.25 20.5 21.2218298 13.5180489 13.5686356 6.99554796 11.9443092 9.0116158 9.0142113 6.99554796 10.0955021 12.73306 8.25 8.57763682 7.50819895 9.0116158 4.34590328 6.99554796"></polygon>
                        <path d="M19.25,4.5 L13.25,4.5 C12.6977153,4.5 12.25,4.05228475 12.25,3.5 L12.25,-1.5 L12.25,-1.5 L19.25,4.5 Z" id="矩形备份-56" fill="#FFFFFF" opacity="0.5" mask="url(#mask-38)"></path>
                        <g id="W" mask="url(#mask-38)">
                            <g transform="translate(2.000000, 6.000000)" id="path-24-link">
                                <g>
                                    <polygon id="path-24" fill="#000000" fill-rule="nonzero" points="4.76909419 7.9905634 6.21809419 2.94006338 7.66709419 7.9905634 9.3680942 7.9905634 11.6255942 0.98706338 10.0925942 0.98706338 8.5175942 6.2580634 7.04759419 0.98706338 5.38859419 0.98706338 3.91859419 6.2580634 2.34359419 0.98706338 0.80009419 0.98706338 3.06809419 7.9905634"></polygon>
                                </g>
                                <g>
                                    <polygon id="path-24" fill="#FFFFFF" fill-rule="nonzero" points="4.76909419 7.9905634 6.21809419 2.94006338 7.66709419 7.9905634 9.3680942 7.9905634 11.6255942 0.98706338 10.0925942 0.98706338 8.5175942 6.2580634 7.04759419 0.98706338 5.38859419 0.98706338 3.91859419 6.2580634 2.34359419 0.98706338 0.80009419 0.98706338 3.06809419 7.9905634"></polygon>
                                </g>
                            </g>
                        </g>
                    </g>
                </g>
            </g>
            <g id="编组" transform="translate(0.000000, 144.000000)">
                <rect id="矩形备份-59" x="0" y="0" width="24" height="24"></rect>
                <g id="编组-23备份-3" transform="translate(4.000000, 2.000000)">
                    <g id="矩形" fill="#1880FF" fill-rule="nonzero">
                        <path d="M1,0 L12,0 L12,0 L16,4 L16,19 C16,19.5522847 15.5522847,20 15,20 L1,20 C0.44771525,20 0,19.5522847 0,19 L0,1 C0,0.44771525 0.44771525,0 1,0 Z" id="path-26"></path>
                    </g>
                    <g id="路径-3-Clipped">
                        <mask id="mask-41" fill="white">
                            <use xlink:href="#path-40"></use>
                        </mask>
                        <g id="path-26"></g>
                        <polygon id="路径-3" fill="url(#linearGradient-42)" fill-rule="nonzero" opacity="0.5" mask="url(#mask-41)" points="6.98231496 13.8825851 14.776463 21.3190713 20.3495942 13.8825851 11.3210324 6 11.2653416 7.44813009 8.33524365 7.44813009 4 7.44813009 7.57103235 10.125"></polygon>
                    </g>
                    <g id="矩形备份-56-Clipped">
                        <mask id="mask-44" fill="white">
                            <use xlink:href="#path-43"></use>
                        </mask>
                        <g id="path-26"></g>
                        <path d="M19,4 L13,4 C12.4477153,4 12,3.55228475 12,3 L12,-2 L12,-2 L19,4 Z" id="矩形备份-56" fill="#FFFFFF" fill-rule="nonzero" opacity="0.5" mask="url(#mask-44)"></path>
                    </g>
                    <g id="txt-Clipped">
                        <mask id="mask-46" fill="white">
                            <use xlink:href="#path-45"></use>
                        </mask>
                        <use id="path-26" fill="#004EE6" xlink:href="#path-45"></use>
                        <polygon id="路径-3" fill="url(#linearGradient-47)" opacity="0.5" mask="url(#mask-46)" points="6.98231496 13.8825851 14.776463 21.3190713 20.3495942 13.8825851 11.3210324 6 11.2653416 7.44813009 8.33524365 7.44813009 4 7.44813009 7.57103235 10.125"></polygon>
                        <path d="M19,4 L13,4 C12.4477153,4 12,3.55228475 12,3 L12,-2 L12,-2 L19,4 Z" id="矩形备份-56" fill="#FFFFFF" opacity="0.5" mask="url(#mask-46)"></path>
                        <g id="txt" mask="url(#mask-46)">
                            <g transform="translate(3.000000, 5.000000)" id="路径">
                                <g transform="translate(0.500000, 0.500000)">
                                    <polygon fill="#FFFFFF" fill-rule="nonzero" points="7.83459793 1.93319729 4.89443583 1.93319729 4.89443583 8.38258512 3.48231496 8.38258512 3.48231496 1.93319729 0.5 1.93319729 0.5 0.5 7.8240597 0.5 7.8240597 1.93319729"></polygon>
                                </g>
                            </g>
                        </g>
                    </g>
                </g>
            </g>
            <g id="文件备份-7" transform="translate(0.000000, 168.000000)">
                <rect id="矩形备份-59" x="0" y="0" width="24" height="24"></rect>
                <g id="编组-23备份-3" transform="translate(3.750000, 1.500000)">
                    <g id="矩形" fill="#FF6A46" fill-rule="nonzero">
                        <path d="M1.25,0.5 L12.25,0.5 L12.25,0.5 L16.25,4.5 L16.25,19.5 C16.25,20.0522847 15.8022847,20.5 15.25,20.5 L1.25,20.5 C0.69771525,20.5 0.25,20.0522847 0.25,19.5 L0.25,1.5 C0.25,0.94771525 0.69771525,0.5 1.25,0.5 Z" id="path-29"></path>
                    </g>
                    <g id="矩形备份-56-Clipped">
                        <mask id="mask-49" fill="white">
                            <use xlink:href="#path-48"></use>
                        </mask>
                        <g id="path-29"></g>
                        <path d="M19.25,4.5 L13.25,4.5 C12.6977153,4.5 12.25,4.05228475 12.25,3.5 L12.25,-1.5 L12.25,-1.5 L19.25,4.5 Z" id="矩形备份-56" fill="#FFFFFF" fill-rule="nonzero" opacity="0.5" mask="url(#mask-49)"></path>
                    </g>
                    <g id="路径-3-Clipped">
                        <mask id="mask-51" fill="white">
                            <use xlink:href="#path-50"></use>
                        </mask>
                        <g id="path-29"></g>
                        <path d="M5.24437498,14 L12.7310562,22.4938625 L18.7482038,15.1762038 L11.0950097,8.65370288 C10.4786663,8.3791116 9.88654701,8.20719212 9.31865197,8.13794443 C8.75075694,8.06869674 7.93297762,8.06869674 6.865314,8.13794443 L6.57464359,10.8378082 L5.24437498,14 Z" id="路径-3" fill="url(#linearGradient-52)" fill-rule="nonzero" opacity="0.659551711" mask="url(#mask-51)"></path>
                    </g>
                    <g id="P-Clipped">
                        <mask id="mask-54" fill="white">
                            <use xlink:href="#path-53"></use>
                        </mask>
                        <g id="path-29"></g>
                        <path d="M6.705,14 L6.705,11.5535 L9.099,11.5535 C9.505,11.5535 9.82525,11.5185 10.05975,11.4485 C10.29425,11.3785 10.5165,11.2525 10.7265,11.0705 C10.9575,10.8675 11.13775,10.60675 11.26725,10.28825 C11.39675,9.96975 11.4615,9.632 11.4615,9.275 C11.4615,8.848 11.3635,8.4525 11.1675,8.0885 C10.9015,7.6055 10.5375,7.287 10.0755,7.133 C9.8025,7.042 9.3475,6.9965 8.7105,6.9965 L8.7105,6.9965 L5.214,6.9965 L5.214,14 L6.705,14 Z M8.7315,10.304 L6.705,10.304 L6.705,8.246 L8.763,8.246 C9.022,8.246 9.211,8.2705 9.33,8.3195 C9.659,8.4525 9.8235,8.7535 9.8235,9.2225 C9.8235,9.6565 9.715,9.961 9.498,10.136 C9.351,10.248 9.0955,10.304 8.7315,10.304 L8.7315,10.304 Z" id="P" fill="#FFFFFF" fill-rule="nonzero" mask="url(#mask-54)"></path>
                    </g>
                </g>
            </g>
            <g id="文件备份-8" transform="translate(0.000000, 192.000000)">
                <rect id="矩形备份-59" x="0" y="0" width="24" height="24"></rect>
                <g id="编组-23备份-3" transform="translate(3.750000, 1.500000)">
                    <g id="矩形" fill="#46B059" fill-rule="nonzero">
                        <path d="M1.25,0.5 L12.25,0.5 L12.25,0.5 L16.25,4.5 L16.25,19.5 C16.25,20.0522847 15.8022847,20.5 15.25,20.5 L1.25,20.5 C0.69771525,20.5 0.25,20.0522847 0.25,19.5 L0.25,1.5 C0.25,0.94771525 0.69771525,0.5 1.25,0.5 Z" id="path-32"></path>
                    </g>
                    <g id="矩形备份-56-Clipped">
                        <mask id="mask-56" fill="white">
                            <use xlink:href="#path-55"></use>
                        </mask>
                        <g id="path-32"></g>
                        <path d="M19.25,4.5 L13.25,4.5 C12.6977153,4.5 12.25,4.05228475 12.25,3.5 L12.25,-1.5 L12.25,-1.5 L19.25,4.5 Z" id="矩形备份-56" fill="#FFFFFF" fill-rule="nonzero" opacity="0.5" mask="url(#mask-56)"></path>
                    </g>
                    <g id="路径-3-Clipped">
                        <mask id="mask-58" fill="white">
                            <use xlink:href="#path-57"></use>
                        </mask>
                        <g id="path-32"></g>
                        <polygon id="路径-3" fill="url(#linearGradient-59)" fill-rule="nonzero" opacity="0.5" mask="url(#mask-58)" points="4.64487842 14.2268215 12.1315597 22.7206841 18.7253301 13.7918139 11.072136 7.26931302 8.99051287 9.15183918 6.44581208 7.26931302 7.56511273 10.7580431"></polygon>
                    </g>
                    <g id="X-Clipped">
                        <mask id="mask-61" fill="white">
                            <use xlink:href="#path-60"></use>
                        </mask>
                        <g id="path-32"></g>
                        <polygon id="X" fill="#FFFFFF" fill-rule="nonzero" mask="url(#mask-61)" points="6.3165 14.25 7.8285 11.8455 9.372 14.25 11.1255 14.25 8.7525 10.7115 11.1255 7.2465 9.3195 7.2465 7.8285 9.5565 6.453 7.2465 4.626 7.2465 6.9255 10.7115 4.542 14.25"></polygon>
                    </g>
                </g>
            </g>
            <g id="文件备份-9" transform="translate(0.000000, 216.000000)">
                <rect id="矩形备份-59" x="0" y="0" width="24" height="24"></rect>
                <g id="编组-23备份-3" transform="translate(3.750000, 1.500000)">
                    <g id="矩形" fill="#FF4539" fill-rule="nonzero">
                        <path d="M1.25,0.5 L12.25,0.5 L12.25,0.5 L16.25,4.5 L16.25,19.5 C16.25,20.0522847 15.8022847,20.5 15.25,20.5 L1.25,20.5 C0.69771525,20.5 0.25,20.0522847 0.25,19.5 L0.25,1.5 C0.25,0.94771525 0.69771525,0.5 1.25,0.5 Z" id="path-35"></path>
                    </g>
                    <g id="矩形备份-56-Clipped">
                        <mask id="mask-63" fill="white">
                            <use xlink:href="#path-62"></use>
                        </mask>
                        <g id="path-35"></g>
                        <path d="M19.25,4.5 L13.25,4.5 C12.6977153,4.5 12.25,4.05228475 12.25,3.5 L12.25,-1.5 L12.25,-1.5 L19.25,4.5 Z" id="矩形备份-56" fill="#FFFFFF" fill-rule="nonzero" opacity="0.5" mask="url(#mask-63)"></path>
                    </g>
                    <g id="路径-3-Clipped">
                        <mask id="mask-65" fill="white">
                            <use xlink:href="#path-64"></use>
                        </mask>
                        <g id="path-35"></g>
                        <polygon id="路径-3" fill="url(#linearGradient-66)" fill-rule="nonzero" opacity="0.5" mask="url(#mask-65)" points="4.00510195 15.4025457 11.4917832 23.8964082 18.5786611 14.9741623 7.92546698 6.2016614 8.09368335 10.4941463"></polygon>
                    </g>
                    <g id="pdf-Clipped">
                        <mask id="mask-68" fill="white">
                            <use xlink:href="#path-67"></use>
                        </mask>
                        <g id="path-35"></g>
                        <g id="pdf" mask="url(#mask-68)">
                            <g transform="translate(2.000000, 4.000000)" id="编组">
                                <g transform="translate(0.250000, 0.500000)">
                                    <rect id="矩形" fill="#000000" fill-rule="nonzero" opacity="0" x="0" y="0" width="11.9882927" height="11.9882927"></rect>
                                    <path d="M9.8938021,8.77929401 C9.16272901,8.72499278 8.4587327,8.45348663 7.89012031,7.96477554 C6.77997229,8.20913108 5.72397783,8.56208908 4.66798337,8.99649893 C3.82860316,10.4897828 3.04337651,11.25 2.36645699,11.25 C2.23107309,11.25 2.0686124,11.2228494 1.96030528,11.1413975 C1.66246069,11.0056445 1.5,10.7069877 1.5,10.4083309 C1.5,10.1639754 1.55415356,9.48521 4.12644775,8.37203478 C4.72213693,7.28601016 5.18244221,6.17283493 5.56151715,5.00535848 C5.23659578,4.3537437 4.53259947,2.7518574 5.01998153,1.93733895 C5.18244221,1.63868218 5.50736358,1.47577848 5.85936174,1.50292909 C6.13012954,1.50292909 6.40089736,1.63868217 6.56335804,1.85588709 C6.91535619,2.34459817 6.88827941,3.37632155 6.42797414,4.89675601 C6.86120263,5.71127447 7.42981503,6.44434108 8.10673455,7.06880524 C8.67534695,6.96020278 9.24395935,6.87875094 9.81257175,6.87875093 C11.0851805,6.90590154 11.2747179,7.50321508 11.2476411,7.85617308 C11.2476411,8.779294 10.3541074,8.779294 9.8938021,8.77929401 L9.8938021,8.77929401 Z M2.31230343,10.4626322 L2.39353377,10.4354815 C2.77260871,10.2997285 3.0704533,10.0282223 3.28706754,9.67526431 C2.88091582,9.838168 2.55599445,10.1096742 2.31230343,10.4626322 Z M5.91351529,2.31744756 L5.83228495,2.31744756 C5.80520818,2.31744756 5.75105461,2.31744756 5.72397783,2.34459817 C5.6156707,2.80615863 5.69690105,3.29486971 5.88643851,3.72927955 C6.0488992,3.26771909 6.0488992,2.77900801 5.91351529,2.31744756 L5.91351529,2.31744756 Z M6.10305277,6.25428678 L6.07597598,6.30858801 L6.0488992,6.2814374 C5.80520818,6.90590155 5.53444037,7.5303657 5.23659577,8.12767924 L5.29074933,8.10052862 L5.29074933,8.15482985 C5.88643851,7.93762492 6.53628125,7.74757062 7.13197043,7.61181754 L7.10489366,7.58466693 L7.186124,7.58466693 C6.77997228,7.1774077 6.40089735,6.71584724 6.10305277,6.25428678 L6.10305277,6.25428678 Z M9.78549497,7.69326939 C9.54180394,7.69326939 9.32518969,7.69326939 9.08149866,7.74757063 C9.35226647,7.8833237 9.62303428,7.93762493 9.8938021,7.96477554 C10.0833396,7.99192615 10.272877,7.96477554 10.4353377,7.91047431 C10.4353377,7.82902247 10.3270306,7.69326939 9.78549497,7.69326939 Z" id="形状" fill="#FFFFFF" fill-rule="nonzero"></path>
                                </g>
                            </g>
                        </g>
                    </g>
                </g>
            </g>
            <g id="编组-10" transform="translate(0.000000, 240.000000)">
                <g id="文件备份-12">
                    <rect id="矩形备份-59" x="0" y="0" width="24" height="24"></rect>
                    <g id="编组-23备份-3" transform="translate(3.750000, 1.500000)">
                        <g id="矩形" fill="#296EFF" fill-rule="nonzero">
                            <path d="M1.25,0.5 L12.25,0.5 L12.25,0.5 L16.25,4.5 L16.25,19.5 C16.25,20.0522847 15.8022847,20.5 15.25,20.5 L1.25,20.5 C0.69771525,20.5 0.25,20.0522847 0.25,19.5 L0.25,1.5 C0.25,0.94771525 0.69771525,0.5 1.25,0.5 Z" id="path-38"></path>
                        </g>
                        <g id="矩形备份-56-Clipped">
                            <mask id="mask-70" fill="white">
                                <use xlink:href="#path-69"></use>
                            </mask>
                            <g id="path-38"></g>
                            <path d="M19.25,4.5 L13.25,4.5 C12.6977153,4.5 12.25,4.05228475 12.25,3.5 L12.25,-1.5 L12.25,-1.5 L19.25,4.5 Z" id="矩形备份-56" fill="#FFFFFF" fill-rule="nonzero" opacity="0.5" mask="url(#mask-70)"></path>
                        </g>
                        <g id="路径-3-Clipped">
                            <mask id="mask-72" fill="white">
                                <use xlink:href="#path-71"></use>
                            </mask>
                            <g id="path-38"></g>
                            <polygon id="路径-3" fill="url(#linearGradient-73)" fill-rule="nonzero" opacity="0.5" mask="url(#mask-72)" points="3.70228471 13.5846221 10.5172319 21.6140734 23.8395126 15.9271932 13.1863185 7.15469229 3.70439368 7.82029877 6.18897023 10.0884523 3.70439368 8.56612134"></polygon>
                        </g>
                    </g>
                </g>
                <g id="彩色-盒子" transform="translate(6.750000, 6.750000)" fill="#FFFFFF" fill-rule="nonzero">
                    <polygon id="路径" fill-opacity="0.9" points="5.40105448 0.00105447656 0.702284713 2.5318102 5.40105448 5.13954306 10.0998243 2.5318102"></polygon>
                    <polygon id="路径" fill-opacity="0.7" points="5.7659051 5.76485062 10.0892794 3.20456942 10.088225 8.29666081 5.76485062 10.8"></polygon>
                    <polygon id="路径" points="0.705448153 3.20456942 5.02987698 5.7258348 5.02460457 10.797891 0.704393677 8.33462214"></polygon>
                </g>
            </g>
            <g id="文件备份-11" transform="translate(0.000000, 264.000000)">
                <rect id="矩形备份-59" x="0" y="0" width="24" height="24"></rect>
                <g id="编组-23备份-3" transform="translate(3.750000, 1.500000)">
                    <g id="矩形" fill="#BBCADC" fill-rule="nonzero">
                        <path d="M1.25,0.5 L12.25,0.5 L12.25,0.5 L16.25,4.5 L16.25,19.5 C16.25,20.0522847 15.8022847,20.5 15.25,20.5 L1.25,20.5 C0.69771525,20.5 0.25,20.0522847 0.25,19.5 L0.25,1.5 C0.25,0.94771525 0.69771525,0.5 1.25,0.5 Z" id="path-41"></path>
                    </g>
                    <g id="矩形备份-56-Clipped">
                        <mask id="mask-75" fill="white">
                            <use xlink:href="#path-74"></use>
                        </mask>
                        <g id="path-41"></g>
                        <path d="M19.25,4.5 L13.25,4.5 C12.6977153,4.5 12.25,4.05228475 12.25,3.5 L12.25,-1.5 L12.25,-1.5 L19.25,4.5 Z" id="矩形备份-56" fill="#FFFFFF" fill-rule="nonzero" opacity="0.5" mask="url(#mask-75)"></path>
                    </g>
                    <g id="路径-3-Clipped">
                        <mask id="mask-77" fill="white">
                            <use xlink:href="#path-76"></use>
                        </mask>
                        <g id="path-41"></g>
                        <polygon id="路径-3" fill="url(#linearGradient-78)" fill-rule="nonzero" opacity="0.5" mask="url(#mask-77)" points="7.12582314 14.5714286 13.8625044 22.3152911 19.009623 15.0024177 9.10642891 6.97991677 7.12582314 7.81666667 5.25 9.73333333 7.12582314 11.8666667"></polygon>
                    </g>
                </g>
                <path d="M9.71452448,9.06344906 C9.94329373,8.80536965 10.2198078,8.60279246 10.5258771,8.46904349 C10.862774,8.31995732 11.2238672,8.24600036 11.5876471,8.25157805 C12.0202097,8.23771782 12.4511296,8.31526913 12.8564289,8.47991677 C13.1603541,8.60510545 13.4375666,8.79626251 13.6711204,9.04170251 C13.8667903,9.24463349 14.018471,9.49222988 14.115194,9.76658733 C14.1999257,9.99739699 14.2451843,10.2430411 14.24875,10.4914722 C14.2583082,10.803567 14.2129808,11.1147795 14.115194,11.4084515 C14.0360301,11.6313511 13.9231866,11.8383647 13.7813041,12.0209791 C13.6547154,12.1871945 13.5075166,12.3335638 13.3439082,12.45591 C13.1836411,12.575516 13.0300517,12.695122 12.8898179,12.8183525 C12.7468745,12.9360765 12.6188886,13.0737885 12.5091834,13.2279124 C12.3932756,13.3974192 12.3217476,13.5977928 12.3021716,13.8078203 L12.3021716,14.25 L10.8631059,14.25 L10.8631059,13.7280829 C10.880346,13.2086416 11.0605881,12.7111907 11.3739575,12.3181819 C11.4962647,12.1655892 11.6327717,12.0271256 11.7813033,11.9049976 C11.924876,11.789016 12.055093,11.6730344 12.1752934,11.5425552 C12.2907803,11.439935 12.390031,11.3175054 12.4691166,11.1801127 C12.5490654,11.0205363 12.5849986,10.8393473 12.5726225,10.6581957 C12.5944482,10.3703384 12.5076912,10.0851945 12.3322217,9.8680712 C12.1499793,9.68971188 11.9093715,9.59829774 11.6644418,9.61436151 C11.4920852,9.60936211 11.3212395,9.65043615 11.1669458,9.73396752 C11.0343346,9.81385891 10.9201674,9.92539601 10.8330558,10.0601657 C10.7392773,10.2032929 10.6713029,10.3643949 10.6327219,10.5349653 C10.5903259,10.727285 10.5690317,10.9243727 10.5692828,11.122122 L9,11.122122 C9.00038414,10.7287615 9.06481427,10.3385707 9.19031727,9.96955508 C9.30865886,9.6331457 9.4867719,9.32527261 9.71452448,9.06344906 Z M12.3758231,15.7376132 C12.3758231,16.1518268 12.0400367,16.4876132 11.6258231,16.4876132 C11.2116096,16.4876132 10.8758231,16.1518268 10.8758231,15.7376132 C10.8758231,15.3233996 11.2116096,14.9876132 11.6258231,14.9876132 C12.0400367,14.9876132 12.3758231,15.3233996 12.3758231,15.7376132 Z" id="形状" fill="#FFFFFF" fill-rule="nonzero"></path>
            </g>
            <rect id="矩形" x="0" y="288" width="24" height="24"></rect>
            <g id="编组-23备份-3" transform="translate(3.000000, 291.000000)" fill-rule="nonzero">
                <g id="矩形" fill="#7AD72B">
                    <path d="M1.67647059,0 L16.3235294,0 C17.2494186,0 18,0.750581449 18,1.67647059 L18,16.3235294 C18,17.2494186 17.2494186,18 16.3235294,18 L1.67647059,18 C0.750581449,18 0,17.2494186 0,16.3235294 L0,1.67647059 C0,0.750581449 0.750581449,0 1.67647059,0 Z" id="path-44"></path>
                </g>
                <g id="矩形" fill="#62B3FF">
                    <path d="M1.67647059,0 L16.3235294,0 C17.2494186,0 18,0.750581449 18,1.67647059 L18,9 L18,9 L0,9 L0,1.67647059 C0,0.750581449 0.750581449,0 1.67647059,0 Z" id="path-46"></path>
                </g>
                <g id="矩形备份-60" transform="translate(0.000000, 5.000000)" fill="#FF656A">
                    <rect id="path-48" x="0" y="0" width="18" height="8"></rect>
                </g>
                <rect id="矩形" fill="#FFBE52" x="6" y="0" width="6" height="18"></rect>
                <polygon id="矩形" stroke="#FFFFFF" stroke-width="1.17352941" fill="#FFDEA8" points="12.5386293 6.409137 12.5929668 11.5406963 5.46137075 11.590863 5.40703323 6.45930373"></polygon>
            </g>
        </g>
    </g>
</svg>