<svg width="25" height="24" viewBox="0 0 25 24" fill="none" xmlns="http://www.w3.org/2000/svg">
<path fill-rule="evenodd" clip-rule="evenodd" d="M12 21C16.9706 21 21 16.9706 21 12C21 7.02944 16.9706 3 12 3C7.02944 3 3 7.02944 3 12C3 16.9706 7.02944 21 12 21ZM10.4358 16.4536C9.71361 16.0367 9.26872 15.2661 9.26872 14.4322C9.26872 13.143 10.3138 12.098 11.6029 12.098C12.0042 12.098 12.3818 12.1992 12.7116 12.3775L12.0698 7.92753C12.0698 7.8971 12.0723 7.86731 12.0772 7.83838C12.0723 7.8193 12.0698 7.7997 12.0698 7.7797C12.0698 7.64771 12.181 7.53279 12.3454 7.47312C12.4037 7.44514 12.4685 7.42957 12.5366 7.42957C12.5461 7.42957 12.5555 7.42987 12.5648 7.43046C12.5775 7.42987 12.5904 7.42957 12.6033 7.42957L15.2709 7.66299C15.5656 7.66299 15.8045 7.81975 15.8045 8.01312C15.8045 8.20649 15.5656 8.36325 15.2709 8.36325L13.0381 8.16787L13.8503 13.7995C13.9041 13.9907 13.934 14.1918 13.9369 14.3995L13.9371 14.401L13.937 14.4111L13.9371 14.4322C13.9371 15.2661 13.4922 16.0367 12.77 16.4536C12.0478 16.8706 11.158 16.8706 10.4358 16.4536Z" fill="url(#paint0_linear)"/>
<defs>
<linearGradient id="paint0_linear" x1="-3.35272" y1="10.998" x2="12.6433" y2="32.7659" gradientUnits="userSpaceOnUse">
<stop stop-color="#0067FF"/>
<stop offset="1" stop-color="#00EBFF"/>
</linearGradient>
</defs>
</svg>
