<svg width="20" height="73" viewBox="0 0 20 73" fill="none" xmlns="http://www.w3.org/2000/svg">
<path fill-rule="evenodd" clip-rule="evenodd" d="M0 0L14.4721 7.23607C17.86 8.92999 20 12.3926 20 16.1803V56.8197C20 60.6074 17.86 64.07 14.4721 65.7639L0 73V0Z" fill="white"/>
<path fill-rule="evenodd" clip-rule="evenodd" d="M7.14645 30.1464C6.95118 30.3417 6.95118 30.6583 7.14645 30.8536L12.2929 36L7.14645 41.1464C6.95118 41.3417 6.95118 41.6583 7.14645 41.8536C7.34171 42.0488 7.65829 42.0488 7.85355 41.8536L13.3536 36.3536C13.5488 36.1583 13.5488 35.8417 13.3536 35.6464L7.85355 30.1464C7.65829 29.9512 7.34171 29.9512 7.14645 30.1464Z" fill="#333333"/>
</svg>
